<svg xmlns="http://www.w3.org/2000/svg" version="1.1" xmlns:xlink="http://www.w3.org/1999/xlink" xmlns:svgjs="http://svgjs.dev/svgjs" width="1500" height="1500" viewBox="0 0 1500 1500"><rect width="1500" height="1500" fill="#c8c8c8"></rect><g transform="matrix(0.6666666666666666,0,0,0.6666666666666666,249.39393939393938,419.6101905513239)"><svg viewBox="0 0 396 254" data-background-color="#c8c8c8" preserveAspectRatio="xMidYMid meet" height="962" width="1500" xmlns="http://www.w3.org/2000/svg" xmlns:xlink="http://www.w3.org/1999/xlink"><g id="tight-bounds" transform="matrix(1,0,0,1,0.2400000000000091,3.8508496880931204)"><svg viewBox="0 0 395.52 247.2" height="247.2" width="395.52"><g><svg></svg></g><g><svg viewBox="0 0 395.52 247.2" height="247.2" width="395.52"><mask id="0270111f-2528-421e-a54b-6932e025e7b7"><rect width="640" height="400" fill="white"></rect><g transform="matrix(1,0,0,1,39.55199999999999,74.75037221012106)"><svg viewBox="0 0 316.416 97.69925557975787" height="97.69925557975787" width="316.416"><g><svg viewBox="0 0 316.416 97.69925557975787" height="97.69925557975787" width="316.416"><g><svg viewBox="0 0 316.416 97.69925557975787" height="97.69925557975787" width="316.416"><g><svg viewBox="0 0 316.416 97.69925557975787" height="97.69925557975787" width="316.416"><g id="SvgjsG1346"><svg viewBox="0 0 316.416 97.69925557975787" height="97.69925557975787" width="316.416" id="SvgjsSvg1345"><g><svg viewBox="0 0 316.416 59.36784733910157" height="59.36784733910157" width="316.416"><g transform="matrix(1,0,0,1,0,0)"><svg width="316.416" viewBox="-0.2200000000000002 -35.95 211.9 40.58" height="59.36784733910157" data-palette-color="#000000"><path d="M15.65-10.63L6.48-10.63 6.48-14.08 15.55-14.08Q18.82-14.08 20.3-15.71 21.78-17.35 21.78-20.23L21.78-20.23 21.78-22.4Q21.78-25.33 20.31-26.93 18.85-28.53 15.6-28.53L15.6-28.53 6.45-28.53 6.45-31.95 15.68-31.95Q21.03-31.95 23.46-29.44 25.9-26.93 25.9-22.53L25.9-22.53 25.9-20.13Q25.9-15.68 23.44-13.15 20.98-10.63 15.65-10.63L15.65-10.63ZM7.88 0L3.78 0 3.78-31.95 7.85-31.95 7.85-13.05 7.88-11.2 7.88 0ZM41.2 0.55L41.2 0.55Q35.62 0.55 32.8-2.18 29.97-4.9 29.97-9.98L29.97-9.98 29.97-14.33Q29.97-19.48 32.6-22.26 35.22-25.05 40.27-25.05L40.27-25.05Q43.67-25.05 45.95-23.79 48.22-22.53 49.37-20.2 50.52-17.88 50.52-14.65L50.52-14.65 50.52-13.75Q50.52-12.95 50.46-12.15 50.4-11.35 50.3-10.58L50.3-10.58 46.57-10.58Q46.62-11.78 46.64-12.85 46.65-13.93 46.65-14.83L46.65-14.83Q46.65-17.05 45.94-18.59 45.22-20.13 43.81-20.94 42.4-21.75 40.27-21.75L40.27-21.75Q37.12-21.75 35.55-19.93 33.97-18.1 33.97-14.7L33.97-14.7 33.97-12.38 34-11.88 34-9.55Q34-8.03 34.45-6.8 34.9-5.58 35.86-4.69 36.82-3.8 38.31-3.34 39.8-2.88 41.85-2.88L41.85-2.88Q44.22-2.88 46.27-3.5 48.32-4.13 50.12-5.2L50.12-5.2 49.75-1.7Q48.12-0.68 45.97-0.06 43.82 0.55 41.2 0.55ZM49.45-10.58L32.1-10.58 32.1-13.63 49.45-13.63 49.45-10.58ZM66.12 0.55L66.12 0.55Q60.55 0.55 57.72-2.18 54.9-4.9 54.9-9.98L54.9-9.98 54.9-14.33Q54.9-19.48 57.52-22.26 60.15-25.05 65.2-25.05L65.2-25.05Q68.6-25.05 70.87-23.79 73.15-22.53 74.3-20.2 75.45-17.88 75.45-14.65L75.45-14.65 75.45-13.75Q75.45-12.95 75.38-12.15 75.32-11.35 75.22-10.58L75.22-10.58 71.5-10.58Q71.55-11.78 71.56-12.85 71.57-13.93 71.57-14.83L71.57-14.83Q71.57-17.05 70.86-18.59 70.15-20.13 68.73-20.94 67.32-21.75 65.2-21.75L65.2-21.75Q62.05-21.75 60.47-19.93 58.9-18.1 58.9-14.7L58.9-14.7 58.9-12.38 58.92-11.88 58.92-9.55Q58.92-8.03 59.37-6.8 59.82-5.58 60.78-4.69 61.75-3.8 63.23-3.34 64.72-2.88 66.77-2.88L66.77-2.88Q69.15-2.88 71.2-3.5 73.25-4.13 75.05-5.2L75.05-5.2 74.67-1.7Q73.05-0.68 70.9-0.06 68.75 0.55 66.12 0.55ZM74.37-10.58L57.02-10.58 57.02-13.63 74.37-13.63 74.37-10.58ZM84.69-14.93L84.69-14.93 83.77-18.05 84.77-18.1Q85.57-21.2 87.52-22.99 89.47-24.78 92.69-24.78L92.69-24.78Q93.49-24.78 94.13-24.65 94.77-24.53 95.27-24.35L95.27-24.35 95.52-20.43Q94.89-20.63 94.13-20.75 93.37-20.88 92.44-20.88L92.44-20.88Q89.69-20.88 87.66-19.35 85.62-17.82 84.69-14.93ZM84.89 0L80.84 0 80.84-24.4 84.79-24.4 84.59-17.2 84.89-16.9 84.89 0ZM112.87-11.45L98.67-11.45 98.67-14.78 112.87-14.78 112.87-11.45ZM131.59-10.63L122.41-10.63 122.41-14.08 131.49-14.08Q134.76-14.08 136.24-15.71 137.71-17.35 137.71-20.23L137.71-20.23 137.71-22.4Q137.71-25.33 136.25-26.93 134.79-28.53 131.54-28.53L131.54-28.53 122.39-28.53 122.39-31.95 131.61-31.95Q136.96-31.95 139.4-29.44 141.84-26.93 141.84-22.53L141.84-22.53 141.84-20.13Q141.84-15.68 139.38-13.15 136.91-10.63 131.59-10.63L131.59-10.63ZM123.81 0L119.71 0 119.71-31.95 123.79-31.95 123.79-13.05 123.81-11.2 123.81 0ZM156.59 0.63L156.59 0.63Q151.34 0.63 148.62-2.21 145.91-5.05 145.91-10.38L145.91-10.38 145.91-14.1Q145.91-19.4 148.64-22.23 151.36-25.05 156.59-25.05L156.59-25.05Q161.84-25.05 164.55-22.23 167.26-19.4 167.26-14.1L167.26-14.1 167.26-10.38Q167.26-5.05 164.55-2.21 161.84 0.63 156.59 0.63ZM156.59-2.68L156.59-2.68Q159.84-2.68 161.52-4.6 163.21-6.53 163.21-10.15L163.21-10.15 163.21-14.33Q163.21-17.93 161.52-19.84 159.84-21.75 156.59-21.75L156.59-21.75Q153.36-21.75 151.66-19.84 149.96-17.93 149.96-14.33L149.96-14.33 149.96-10.15Q149.96-6.53 151.66-4.6 153.36-2.68 156.59-2.68ZM176.73-14.93L176.73-14.93 175.81-18.05 176.81-18.1Q177.61-21.2 179.56-22.99 181.51-24.78 184.73-24.78L184.73-24.78Q185.53-24.78 186.17-24.65 186.81-24.53 187.31-24.35L187.31-24.35 187.56-20.43Q186.93-20.63 186.17-20.75 185.41-20.88 184.48-20.88L184.48-20.88Q181.73-20.88 179.7-19.35 177.66-17.82 176.73-14.93ZM176.93 0L172.88 0 172.88-24.4 176.83-24.4 176.63-17.2 176.93-16.9 176.93 0ZM201.31 0.5L201.31 0.5Q198.48 0.5 196.76-0.35 195.03-1.2 194.26-2.93 193.48-4.65 193.48-7.23L193.48-7.23 193.48-22.63 197.48-22.63 197.48-7.7Q197.48-5.3 198.58-4.16 199.68-3.03 202.28-3.03L202.28-3.03Q203.76-3.03 205.12-3.35 206.48-3.68 207.68-4.28L207.68-4.28 207.31-0.8Q206.13-0.2 204.56 0.15 202.98 0.5 201.31 0.5ZM207.06-20.8L189.48-20.8 189.48-24.05 207.43-24.05 207.06-20.8ZM197.38-23.65L193.51-23.65 193.48-30.5 197.56-31.03 197.38-23.65Z" opacity="1" transform="matrix(1,0,0,1,0,0)" fill="black" class="wordmark-text-0" id="SvgjsPath1344" stroke-width="7" stroke="black" stroke-linejoin="round"></path></svg></g></svg></g><g transform="matrix(1,0,0,1,3.5,70.90414997886073)"><svg viewBox="0 0 309.416 26.795105600897138" height="26.795105600897138" width="309.416"><g transform="matrix(1,0,0,1,0,0)"><svg width="309.416" viewBox="-2.15 -50.6 811.86 70.9" height="26.795105600897138" data-palette-color="#ee2110"><path d="M26.2-35.6L26.2-34.15Q20.65-33.4 16.2-30.33 11.75-27.25 9.22-22.58 6.7-17.9 6.7-12.45L6.7-12.45Q6.7-7.9 8.45-5.25 10.2-2.6 13.05-2.6L13.05-2.6Q15.85-2.6 18.43-6.48 21-10.35 22.58-16.63 24.15-22.9 24.15-29.7L24.15-29.7 28.85-31.55 28.85-5.35Q28.85-3.95 29.45-3.1 30.05-2.25 31.1-2.25L31.1-2.25Q31.9-2.25 32.75-2.78 33.6-3.3 34.05-4.05L34.05-4.05 34.75-3.4Q34.05-1.85 32.6-0.8 31.15 0.25 29.3 0.25L29.3 0.25Q27 0.25 25.58-1.35 24.15-2.95 24.15-5.9L24.15-5.9 24.15-15.45 23.9-15.45Q20.3 0.55 11.7 0.55L11.7 0.55Q7.25 0.55 4.55-2.58 1.85-5.7 1.85-11.15L1.85-11.15Q1.85-17.4 5.15-22.9 8.45-28.4 14.05-31.85 19.65-35.3 26.2-35.6L26.2-35.6ZM50.8-46.6Q52.25-46.6 54.22-45.48 56.2-44.35 57.5-42.65L57.5-42.65 54.15-40.8Q53.35-42.45 51.95-43.6 50.55-44.75 48.6-44.75L48.6-44.75Q45.95-44.75 44.82-42.98 43.7-41.2 43.7-38.85L43.7-38.85 43.7-25 54.25-25 52.7-21.8 43.7-21.8 43.7 6.7 39.1 8.9 39.1-21.8 35.85-21.8 37.15-25 39.1-25 39.1-31.75Q39.1-35.65 40.25-39 41.4-42.35 44-44.48 46.6-46.6 50.8-46.6L50.8-46.6ZM69.2-46.6Q70.65-46.6 72.62-45.48 74.6-44.35 75.9-42.65L75.9-42.65 72.55-40.8Q71.75-42.45 70.35-43.6 68.95-44.75 67-44.75L67-44.75Q64.35-44.75 63.22-42.98 62.1-41.2 62.1-38.85L62.1-38.85 62.1-25 72.65-25 71.1-21.8 62.1-21.8 62.1 6.7 57.5 8.9 57.5-21.8 54.25-21.8 55.55-25 57.5-25 57.5-31.75Q57.5-35.65 58.65-39 59.8-42.35 62.4-44.48 65-46.6 69.2-46.6L69.2-46.6ZM84.34-25.45L85.24-24.4Q81.49-22 79.34-19.05 77.19-16.1 77.19-12.1L77.19-12.1Q77.19-9.85 78.14-7.58 79.09-5.3 80.99-3.8 82.89-2.3 85.54-2.3L85.54-2.3Q87.69-2.3 89.37-3.3 91.04-4.3 91.97-6 92.89-7.7 92.89-9.75L92.89-9.75Q92.89-12.1 91.47-14.55 90.04-17 87.74-18.7 85.44-20.4 83.04-20.6L83.04-20.6Q84.04-21.6 85.44-22.7 86.84-23.8 88.29-24.85L88.29-24.85Q91.74-23.7 93.74-20.48 95.74-17.25 95.74-13.3L95.74-13.3Q95.74-9.8 94.32-6.58 92.89-3.35 90.14-1.33 87.39 0.7 83.64 0.7L83.64 0.7Q80.64 0.7 78.12-0.78 75.59-2.25 74.14-4.8 72.69-7.35 72.69-10.45L72.69-10.45Q72.69-15.9 75.92-19.9 79.14-23.9 84.34-25.45L84.34-25.45ZM111.74-18.9Q109.49-16.55 107.87-12.78 106.24-9 106.24-5.9L106.24-5.9Q106.24-3.2 107.42-1.38 108.59 0.45 111.19 0.45L111.19 0.45Q113.29 0.45 115.22-0.65 117.14-1.75 118.49-3.5L118.49-3.5 117.94-4.25Q116.39-3.2 114.89-3.2L114.89-3.2Q112.54-3.2 111.34-4.85 110.14-6.5 110.14-8.85L110.14-8.85Q110.14-12.65 112.09-16.05 114.04-19.45 117.04-22.65L117.04-22.65 116.24-23.35Q112.74-21.15 109.84-21.15L109.84-21.15Q108.14-21.15 106.74-22.68 105.34-24.2 104.59-26.05L104.59-26.05 100.54-21.5Q100.89-20.5 102.44-19.2L102.44-19.2 99.09-12.2 100.94-11.35 104.19-18.5Q105.04-18.15 105.59-18.05 106.14-17.95 107.09-17.95L107.09-17.95Q109.54-17.95 111.59-19.05L111.59-19.05 111.74-18.9ZM143.74-46.2L143.74-4.45Q143.74-3.75 144.06-3.18 144.39-2.6 145.09-2.6L145.09-2.6Q145.79-2.6 146.49-3.23 147.19-3.85 147.54-4.6L147.54-4.6 148.49-3.8Q147.69-2.1 146.21-0.93 144.74 0.25 143.34 0.25L143.34 0.25Q141.04 0.25 139.99-1.05 138.94-2.35 138.99-5.55L138.99-5.55 138.79-5.55Q135.74 0.6 131.34 0.6L131.34 0.6Q126.99 0.6 124.66-2.43 122.34-5.45 122.34-10L122.34-10Q122.34-13.6 123.89-17.15 125.44-20.7 128.31-23 131.19-25.3 134.94-25.3L134.94-25.3Q137.29-25.3 139.04-24.1L139.04-24.1 139.04-44.3 143.74-46.2ZM134.64-22.35Q131.84-22.35 130.01-20.6 128.19-18.85 127.34-16.38 126.49-13.9 126.49-11.75L126.49-11.75Q126.49-10.05 127.09-8 127.69-5.95 129.04-4.48 130.39-3 132.49-3L132.49-3Q136.29-3 137.66-6.28 139.04-9.55 139.04-13.5L139.04-13.5 139.04-20.35Q138.19-21.25 137.06-21.8 135.94-22.35 134.64-22.35L134.64-22.35ZM164.84-25Q167.29-25 169.46-23.95 171.64-22.9 172.64-20.75L172.64-20.75 169.04-18.8Q168.24-19.95 166.84-20.88 165.44-21.8 163.84-21.8L163.84-21.8Q161.29-21.8 159.39-20.48 157.49-19.15 156.49-16.9 155.49-14.65 155.49-11.9L155.49-11.9Q155.49-7.95 156.84-5.48 158.19-3 161.09-3L161.09-3Q165.19-3 166.74-6.3 168.29-9.6 168.29-13.5L168.29-13.5 168.29-15.75 172.69-17.6 172.69-4.45Q172.69-3.8 173.04-3.2 173.39-2.6 174.09-2.6L174.09-2.6Q175.54-2.6 176.74-4.6L176.74-4.6 177.49-3.8Q176.89-2.1 175.39-0.93 173.89 0.25 172.39 0.25L172.39 0.25Q170.24 0.25 169.21-1.35 168.19-2.95 168.19-5.6L168.19-5.6 168.09-5.6Q166.84-2.95 164.71-1.18 162.59 0.6 160.24 0.6L160.24 0.6Q155.99 0.6 153.81-2.33 151.64-5.25 151.64-10.15L151.64-10.15Q151.64-14.05 153.39-17.48 155.14-20.9 158.16-22.95 161.19-25 164.84-25L164.84-25ZM202.83-13.2Q202.83-10.15 200.88-6.9 198.93-3.65 196.06-1.53 193.18 0.6 190.63 0.6L190.63 0.6Q186.53 0.6 184.21-2.18 181.88-4.95 181.88-9.25L181.88-9.25 181.88-44.3 186.43-46.2 186.43-8.15Q186.43-5.75 187.88-3.95 189.33-2.15 191.98-2.15L191.98-2.15Q194.18-2.15 195.81-3.4 197.43-4.65 198.26-6.48 199.08-8.3 199.08-9.95L199.08-9.95Q199.08-12.45 197.78-15.1 196.48-17.75 194.41-19.45 192.33-21.15 190.08-21.15L190.08-21.15 194.53-24.85Q196.68-24.15 198.61-22.18 200.53-20.2 201.68-17.73 202.83-15.25 202.83-13.2L202.83-13.2ZM214.23-46.2L214.23-4.2Q214.23-3.6 214.58-3.05 214.93-2.5 215.78-2.5L215.78-2.5Q216.48-2.5 217.26-3.13 218.03-3.75 218.43-4.45L218.43-4.45 219.28-3.7Q218.43-2.05 216.93-0.9 215.43 0.25 213.93 0.25L213.93 0.25Q209.73 0.25 209.73-4.8L209.73-4.8 209.73-44.3 214.23-46.2ZM236.58-25.45Q239.28-25.45 241.08-24 242.88-22.55 242.88-19.7L242.88-19.7Q242.88-17.4 240.4-14.58 237.93-11.75 234.6-9.4 231.28-7.05 228.93-6.1L228.93-6.1Q230.18-4.1 231.78-3.33 233.38-2.55 235.53-2.55L235.53-2.55Q237.93-2.55 240.3-3.78 242.68-5 244.23-6.95L244.23-6.95 244.83-5.9Q242.38-2.75 239.63-1.07 236.88 0.6 232.88 0.6L232.88 0.6Q229.83 0.6 227.43-0.9 225.03-2.4 223.68-4.93 222.33-7.45 222.33-10.4L222.33-10.4Q222.33-14.1 224.33-17.6 226.33-21.1 229.63-23.28 232.93-25.45 236.58-25.45L236.58-25.45ZM233.98-22.3Q231.78-22.3 230.05-20.9 228.33-19.5 227.35-17.3 226.38-15.1 226.38-12.75L226.38-12.75Q226.38-9.65 227.83-7.45L227.83-7.45Q229.93-8.4 232.38-10.33 234.83-12.25 236.53-14.5 238.23-16.75 238.23-18.6L238.23-18.6Q238.23-22.3 233.98-22.3L233.98-22.3ZM266.57-38.3L266.57-25 273.52-25 272.02-21.8 266.57-21.8 266.57-4.2Q266.57-3.45 267.02-2.98 267.47-2.5 268.22-2.5L268.22-2.5Q269.27-2.5 271.12-4.45L271.12-4.45 271.82-3.7Q270.87-1.8 269.55-0.88 268.22 0.05 267.05 0.28 265.87 0.5 265.87 0.3L265.87 0.3Q265.92 0.3 266.02 0.28 266.12 0.25 266.32 0.25L266.32 0.25Q261.92 0.25 261.92-4.8L261.92-4.8 261.92-21.8 258.17-21.8 259.72-25 261.92-25 261.92-36.5 266.57-38.3ZM288.02-18.9Q285.77-16.55 284.15-12.78 282.52-9 282.52-5.9L282.52-5.9Q282.52-3.2 283.7-1.38 284.87 0.45 287.47 0.45L287.47 0.45Q289.57 0.45 291.5-0.65 293.42-1.75 294.77-3.5L294.77-3.5 294.22-4.25Q292.67-3.2 291.17-3.2L291.17-3.2Q288.82-3.2 287.62-4.85 286.42-6.5 286.42-8.85L286.42-8.85Q286.42-12.65 288.37-16.05 290.32-19.45 293.32-22.65L293.32-22.65 292.52-23.35Q289.02-21.15 286.12-21.15L286.12-21.15Q284.42-21.15 283.02-22.68 281.62-24.2 280.87-26.05L280.87-26.05 276.82-21.5Q277.17-20.5 278.72-19.2L278.72-19.2 275.37-12.2 277.22-11.35 280.47-18.5Q281.32-18.15 281.87-18.05 282.42-17.95 283.37-17.95L283.37-17.95Q285.82-17.95 287.87-19.05L287.87-19.05 288.02-18.9ZM311.87-25Q314.32-25 316.49-23.95 318.67-22.9 319.67-20.75L319.67-20.75 316.07-18.8Q315.27-19.95 313.87-20.88 312.47-21.8 310.87-21.8L310.87-21.8Q308.32-21.8 306.42-20.48 304.52-19.15 303.52-16.9 302.52-14.65 302.52-11.9L302.52-11.9Q302.52-7.95 303.87-5.48 305.22-3 308.12-3L308.12-3Q312.22-3 313.77-6.3 315.32-9.6 315.32-13.5L315.32-13.5 315.32-15.75 319.72-17.6 319.72-4.45Q319.72-3.8 320.07-3.2 320.42-2.6 321.12-2.6L321.12-2.6Q322.57-2.6 323.77-4.6L323.77-4.6 324.52-3.8Q323.92-2.1 322.42-0.93 320.92 0.25 319.42 0.25L319.42 0.25Q317.27 0.25 316.24-1.35 315.22-2.95 315.22-5.6L315.22-5.6 315.12-5.6Q313.87-2.95 311.74-1.18 309.62 0.6 307.27 0.6L307.27 0.6Q303.02 0.6 300.84-2.33 298.67-5.25 298.67-10.15L298.67-10.15Q298.67-14.05 300.42-17.48 302.17-20.9 305.19-22.95 308.22-25 311.87-25L311.87-25ZM346.62-25.45Q348.62-25.45 349.22-23.98 349.82-22.5 349.82-19.9L349.82-19.9 349.82-18.35 349.82-4.2Q349.82-3.65 350.17-3.08 350.52-2.5 351.17-2.5L351.17-2.5Q352.02-2.5 352.62-3.05 353.22-3.6 353.82-4.45L353.82-4.45 354.57-3.7Q353.82-2.1 352.32-0.93 350.82 0.25 349.47 0.25L349.47 0.25Q347.47 0.25 346.37-1 345.27-2.25 345.27-4.8L345.27-4.8 345.27-18.05Q345.27-18.8 345.12-19.3 344.97-19.8 344.37-19.8L344.37-19.8Q342.32-19.8 340.17-15.85 338.02-11.9 336.49-7.03 334.97-2.15 334.97-0.6L334.97-0.6 330.62 0.7 330.62-20.7Q330.62-21.4 330.24-21.98 329.87-22.55 329.17-22.55L329.17-22.55Q327.97-22.55 326.57-20.4L326.57-20.4 325.82-21.2Q326.47-23 327.97-24.23 329.47-25.45 330.97-25.45L330.97-25.45Q333.07-25.45 334.09-24.45 335.12-23.45 335.12-21.7L335.12-21.7 335.12-8.55 335.32-8.55Q336.67-13 337.92-16.3 339.17-19.6 341.42-22.53 343.67-25.45 346.62-25.45L346.62-25.45ZM365.11-27.05Q366.81-27.05 367.59-26.45 368.36-25.85 368.36-24.6L368.36-24.6Q368.36-23.25 367.84-22.2 367.31-21.15 366.71-20.4 366.11-19.65 365.91-19.35L365.91-19.35Q366.51-18.35 368.16-17L368.16-17Q369.51-15.85 370.31-14.95 371.11-14.05 371.69-12.53 372.26-11 372.26-8.8L372.26-8.8Q372.26-6.2 371.09-4.05 369.91-1.9 367.84-0.65 365.76 0.6 363.16 0.6L363.16 0.6Q361.56 0.6 359.66-0.08 357.76-0.75 356.86-2L356.86-2 360.21-6.45Q361.41-4.9 362.74-3.8 364.06-2.7 365.61-2.7L365.61-2.7Q367.76-2.7 369.29-4.13 370.81-5.55 370.81-7.55L370.81-7.55Q370.81-9.15 369.49-10.73 368.16-12.3 365.76-14.45L365.76-14.45Q365.46-14.7 364.61-15.48 363.76-16.25 363.36-16.75L363.36-16.75 359.86-11.6 358.26-12.65 362.26-18.2Q361.56-20.15 361.56-22.05L361.56-22.05Q361.56-24.2 362.51-25.63 363.46-27.05 365.11-27.05L365.11-27.05ZM365.11-25.1Q364.46-25.1 364.29-24.75 364.11-24.4 364.11-23.7L364.11-23.7Q364.11-22.8 364.36-22.15 364.61-21.5 364.71-21.25L364.71-21.25Q365.26-21.6 365.74-22.53 366.21-23.45 366.21-24.1L366.21-24.1Q366.21-24.55 365.94-24.83 365.66-25.1 365.11-25.1L365.11-25.1ZM391.66-25.25Q394.31-25.25 396.56-23.73 398.81-22.2 400.11-19.58 401.41-16.95 401.41-13.85L401.41-13.85Q401.41-9.45 400.19-6.23 398.96-3 396.66-1.25 394.36 0.5 391.26 0.5L391.26 0.5Q390.51 0.5 389.79 0.28 389.06 0.05 387.96-0.5L387.96-0.5 389.26-3.35Q390.51-2.55 392.86-2.55L392.86-2.55Q394.96-2.55 396.29-5.33 397.61-8.1 397.61-12.45L397.61-12.45Q397.61-14.95 396.61-17.03 395.61-19.1 393.86-20.28 392.11-21.45 389.96-21.45L389.96-21.45Q387.36-21.45 385.96-18.65 384.56-15.85 384.56-10.7L384.56-10.7 384.56 14.45 380.21 16.3 380.21-20.55Q380.21-21.45 379.81-22 379.41-22.55 378.76-22.55L378.76-22.55Q378.26-22.55 377.66-22.05 377.06-21.55 376.16-20.45L376.16-20.45 375.41-21.2Q376.01-22.9 377.51-24.08 379.01-25.25 380.51-25.25L380.51-25.25Q382.76-25.25 383.76-23.93 384.76-22.6 384.76-19.65L384.76-19.65 384.96-19.65Q386.11-22.15 387.94-23.7 389.76-25.25 391.66-25.25L391.66-25.25ZM417.66-25.45L418.56-24.4Q414.81-22 412.66-19.05 410.51-16.1 410.51-12.1L410.51-12.1Q410.51-9.85 411.46-7.58 412.41-5.3 414.31-3.8 416.21-2.3 418.86-2.3L418.86-2.3Q421.01-2.3 422.68-3.3 424.36-4.3 425.28-6 426.21-7.7 426.21-9.75L426.21-9.75Q426.21-12.1 424.78-14.55 423.36-17 421.06-18.7 418.76-20.4 416.36-20.6L416.36-20.6Q417.36-21.6 418.76-22.7 420.16-23.8 421.61-24.85L421.61-24.85Q425.06-23.7 427.06-20.48 429.06-17.25 429.06-13.3L429.06-13.3Q429.06-9.8 427.63-6.58 426.21-3.35 423.46-1.33 420.71 0.7 416.96 0.7L416.96 0.7Q413.96 0.7 411.43-0.78 408.91-2.25 407.46-4.8 406.01-7.35 406.01-10.45L406.01-10.45Q406.01-15.9 409.23-19.9 412.46-23.9 417.66-25.45L417.66-25.45ZM445.06-18.9Q442.81-16.55 441.18-12.78 439.56-9 439.56-5.9L439.56-5.9Q439.56-3.2 440.73-1.38 441.91 0.45 444.51 0.45L444.51 0.45Q446.61 0.45 448.53-0.65 450.46-1.75 451.81-3.5L451.81-3.5 451.26-4.25Q449.71-3.2 448.21-3.2L448.21-3.2Q445.86-3.2 444.66-4.85 443.46-6.5 443.46-8.85L443.46-8.85Q443.46-12.65 445.41-16.05 447.36-19.45 450.36-22.65L450.36-22.65 449.56-23.35Q446.06-21.15 443.16-21.15L443.16-21.15Q441.46-21.15 440.06-22.68 438.66-24.2 437.91-26.05L437.91-26.05 433.86-21.5Q434.21-20.5 435.76-19.2L435.76-19.2 432.41-12.2 434.26-11.35 437.51-18.5Q438.36-18.15 438.91-18.05 439.46-17.95 440.41-17.95L440.41-17.95Q442.86-17.95 444.91-19.05L444.91-19.05 445.06-18.9ZM462.9-38.3L462.9-25 469.85-25 468.35-21.8 462.9-21.8 462.9-4.2Q462.9-3.45 463.35-2.98 463.8-2.5 464.55-2.5L464.55-2.5Q465.6-2.5 467.45-4.45L467.45-4.45 468.15-3.7Q467.2-1.8 465.88-0.88 464.55 0.05 463.38 0.28 462.2 0.5 462.2 0.3L462.2 0.3Q462.25 0.3 462.35 0.28 462.45 0.25 462.65 0.25L462.65 0.25Q458.25 0.25 458.25-4.8L458.25-4.8 458.25-21.8 454.5-21.8 456.05-25 458.25-25 458.25-36.5 462.9-38.3ZM511.95-26.85Q515.5-25.2 515.5-20.95L515.5-20.95Q515.5-19.95 515.27-18.73 515.05-17.5 514.7-16.6L514.7-16.6 508.05-0.85Q507.8 0.05 506.65 0.05L506.65 0.05Q505.35 0.05 505.05-0.9L505.05-0.9 500.95-15.15 495.6-1Q495.3-0.35 495.02-0.08 494.75 0.2 494.15 0.2L494.15 0.2Q493.55 0.2 493.25-0.05 492.95-0.3 492.75-0.75L492.75-0.75 487.15-18.3Q486.75-19.7 486.2-20.25 485.65-20.8 484.65-20.8L484.65-20.8Q483.5-20.8 482.5-19.8L482.5-19.8 481.95-20.6Q483.05-22.6 484.57-23.8 486.1-25 488-25L488-25Q488.95-25 489.55-24.35 490.15-23.7 490.5-22.88 490.85-22.05 491.5-20.05L491.5-20.05 495.75-6.8 500.1-18.25 498.5-23.75 503.15-25.5 508.45-6.7 511.4-13.85Q511.8-14.65 511.8-16.25L511.8-16.25Q511.8-18.1 510.87-19.53 509.95-20.95 508.3-21.8L508.3-21.8 511.95-26.85ZM526.2-41.7L524.5-30.05 522.85-29.45 520.8-39.85 526.2-41.7ZM526.15-24.8L526.15-4.2Q526.15-3.45 526.52-2.98 526.9-2.5 527.6-2.5L527.6-2.5Q528.15-2.5 528.82-3 529.5-3.5 530.2-4.45L530.2-4.45 531-3.7Q529.85-1.55 528.22-0.65 526.6 0.25 525.25 0.25L525.25 0.25Q523.45 0.25 522.47-0.9 521.5-2.05 521.5-4.8L521.5-4.8 521.5-23 526.15-24.8ZM541.49-38.3L541.49-25 548.44-25 546.94-21.8 541.49-21.8 541.49-4.2Q541.49-3.45 541.94-2.98 542.39-2.5 543.14-2.5L543.14-2.5Q544.19-2.5 546.04-4.45L546.04-4.45 546.74-3.7Q545.79-1.8 544.47-0.88 543.14 0.05 541.97 0.28 540.79 0.5 540.79 0.3L540.79 0.3Q540.84 0.3 540.94 0.28 541.04 0.25 541.24 0.25L541.24 0.25Q536.84 0.25 536.84-4.8L536.84-4.8 536.84-21.8 533.09-21.8 534.64-25 536.84-25 536.84-36.5 541.49-38.3ZM557.99-46.2L557.99-10.65 558.19-10.65Q558.69-13.4 559.96-16.82 561.24-20.25 563.39-22.85 565.54-25.45 568.44-25.45L568.44-25.45Q569.99-25.45 570.71-24.33 571.44-23.2 571.56-21.8 571.69-20.4 571.69-18.1L571.69-18.1 571.69-4.2Q571.69-3.6 572.06-3.05 572.44-2.5 573.24-2.5L573.24-2.5Q574.54-2.5 575.89-4.45L575.89-4.45 576.49-3.7Q575.79-2.05 574.26-0.9 572.74 0.25 571.19 0.25L571.19 0.25Q567.29 0.25 567.29-4.8L567.29-4.8 567.29-18.05Q567.29-18.7 567.01-19.25 566.74-19.8 566.09-19.8L566.09-19.8Q563.54-19.8 561.69-15.83 559.84-11.85 558.84-7.08 557.84-2.3 557.84-0.6L557.84-0.6 553.39 0.7 553.39-44.3 557.99-46.2ZM607.53-35.75Q612.28-35.75 615.31-33.18 618.33-30.6 618.33-25.45L618.33-25.45Q618.33-21.35 615.58-17.82 612.83-14.3 608.56-12.2 604.28-10.1 599.98-10.1L599.98-10.1Q599.53-10.1 599.43-10.2L599.43-10.2 599.68-11.55Q603.03-11.9 606.23-13.65 609.43-15.4 611.46-18.23 613.48-21.05 613.48-24.5L613.48-24.5Q613.48-28.25 611.21-30.5 608.93-32.75 604.48-32.75L604.48-32.75Q601.03-32.75 597.21-31.13 593.38-29.5 590.53-26.9L590.53-26.9 589.58-27.95Q593.23-31.35 598.11-33.55 602.98-35.75 607.53-35.75L607.53-35.75ZM597.38-28.5L597.38-1.1 592.78 0.65 592.78-26.7 597.38-28.5ZM631.48-25.45Q634.18-25.45 635.98-24 637.78-22.55 637.78-19.7L637.78-19.7Q637.78-17.4 635.31-14.58 632.83-11.75 629.51-9.4 626.18-7.05 623.83-6.1L623.83-6.1Q625.08-4.1 626.68-3.33 628.28-2.55 630.43-2.55L630.43-2.55Q632.83-2.55 635.21-3.78 637.58-5 639.13-6.95L639.13-6.95 639.73-5.9Q637.28-2.75 634.53-1.07 631.78 0.6 627.78 0.6L627.78 0.6Q624.73 0.6 622.33-0.9 619.93-2.4 618.58-4.93 617.23-7.45 617.23-10.4L617.23-10.4Q617.23-14.1 619.23-17.6 621.23-21.1 624.53-23.28 627.83-25.45 631.48-25.45L631.48-25.45ZM628.88-22.3Q626.68-22.3 624.96-20.9 623.23-19.5 622.26-17.3 621.28-15.1 621.28-12.75L621.28-12.75Q621.28-9.65 622.73-7.45L622.73-7.45Q624.83-8.4 627.28-10.33 629.73-12.25 631.43-14.5 633.13-16.75 633.13-18.6L633.13-18.6Q633.13-22.3 628.88-22.3L628.88-22.3ZM657.58-25.45Q660.28-25.45 662.08-24 663.88-22.55 663.88-19.7L663.88-19.7Q663.88-17.4 661.4-14.58 658.93-11.75 655.6-9.4 652.28-7.05 649.93-6.1L649.93-6.1Q651.18-4.1 652.78-3.33 654.38-2.55 656.53-2.55L656.53-2.55Q658.93-2.55 661.3-3.78 663.68-5 665.23-6.95L665.23-6.95 665.83-5.9Q663.38-2.75 660.63-1.07 657.88 0.6 653.88 0.6L653.88 0.6Q650.83 0.6 648.43-0.9 646.03-2.4 644.68-4.93 643.33-7.45 643.33-10.4L643.33-10.4Q643.33-14.1 645.33-17.6 647.33-21.1 650.63-23.28 653.93-25.45 657.58-25.45L657.58-25.45ZM654.98-22.3Q652.78-22.3 651.05-20.9 649.33-19.5 648.35-17.3 647.38-15.1 647.38-12.75L647.38-12.75Q647.38-9.65 648.83-7.45L648.83-7.45Q650.93-8.4 653.38-10.33 655.83-12.25 657.53-14.5 659.23-16.75 659.23-18.6L659.23-18.6Q659.23-22.3 654.98-22.3L654.98-22.3ZM680.98-18.9Q678.73-16.55 677.1-12.78 675.48-9 675.48-5.9L675.48-5.9Q675.48-3.2 676.65-1.38 677.83 0.45 680.43 0.45L680.43 0.45Q682.53 0.45 684.45-0.65 686.38-1.75 687.73-3.5L687.73-3.5 687.18-4.25Q685.63-3.2 684.13-3.2L684.13-3.2Q681.78-3.2 680.58-4.85 679.38-6.5 679.38-8.85L679.38-8.85Q679.38-12.65 681.33-16.05 683.28-19.45 686.28-22.65L686.28-22.65 685.48-23.35Q681.98-21.15 679.08-21.15L679.08-21.15Q677.38-21.15 675.98-22.68 674.58-24.2 673.83-26.05L673.83-26.05 669.78-21.5Q670.13-20.5 671.68-19.2L671.68-19.2 668.33-12.2 670.18-11.35 673.43-18.5Q674.28-18.15 674.83-18.05 675.38-17.95 676.33-17.95L676.33-17.95Q678.78-17.95 680.83-19.05L680.83-19.05 680.98-18.9ZM693.72-20.85L692.12-16.6 709.07-16.6 710.57-20.85 693.72-20.85ZM732.17-35.75Q736.92-35.75 739.95-33.18 742.97-30.6 742.97-25.45L742.97-25.45Q742.97-21.35 740.22-17.82 737.47-14.3 733.2-12.2 728.92-10.1 724.62-10.1L724.62-10.1Q724.17-10.1 724.07-10.2L724.07-10.2 724.32-11.55Q727.67-11.9 730.87-13.65 734.07-15.4 736.1-18.23 738.12-21.05 738.12-24.5L738.12-24.5Q738.12-28.25 735.85-30.5 733.57-32.75 729.12-32.75L729.12-32.75Q725.67-32.75 721.85-31.13 718.02-29.5 715.17-26.9L715.17-26.9 714.22-27.95Q717.87-31.35 722.75-33.55 727.62-35.75 732.17-35.75L732.17-35.75ZM722.02-28.5L722.02-1.1 717.42 0.65 717.42-26.7 722.02-28.5ZM753.52-25.45L754.42-24.4Q750.67-22 748.52-19.05 746.37-16.1 746.37-12.1L746.37-12.1Q746.37-9.85 747.32-7.58 748.27-5.3 750.17-3.8 752.07-2.3 754.72-2.3L754.72-2.3Q756.87-2.3 758.54-3.3 760.22-4.3 761.14-6 762.07-7.7 762.07-9.75L762.07-9.75Q762.07-12.1 760.64-14.55 759.22-17 756.92-18.7 754.62-20.4 752.22-20.6L752.22-20.6Q753.22-21.6 754.62-22.7 756.02-23.8 757.47-24.85L757.47-24.85Q760.92-23.7 762.92-20.48 764.92-17.25 764.92-13.3L764.92-13.3Q764.92-9.8 763.49-6.58 762.07-3.35 759.32-1.33 756.57 0.7 752.82 0.7L752.82 0.7Q749.82 0.7 747.29-0.78 744.77-2.25 743.32-4.8 741.87-7.35 741.87-10.45L741.87-10.45Q741.87-15.9 745.09-19.9 748.32-23.9 753.52-25.45L753.52-25.45ZM780.92-18.9Q778.67-16.55 777.04-12.78 775.42-9 775.42-5.9L775.42-5.9Q775.42-3.2 776.59-1.38 777.77 0.45 780.37 0.45L780.37 0.45Q782.47 0.45 784.39-0.65 786.32-1.75 787.67-3.5L787.67-3.5 787.12-4.25Q785.57-3.2 784.07-3.2L784.07-3.2Q781.72-3.2 780.52-4.85 779.32-6.5 779.32-8.85L779.32-8.85Q779.32-12.65 781.27-16.05 783.22-19.45 786.22-22.65L786.22-22.65 785.42-23.35Q781.92-21.15 779.02-21.15L779.02-21.15Q777.32-21.15 775.92-22.68 774.52-24.2 773.77-26.05L773.77-26.05 769.72-21.5Q770.07-20.5 771.62-19.2L771.62-19.2 768.27-12.2 770.12-11.35 773.37-18.5Q774.22-18.15 774.77-18.05 775.32-17.95 776.27-17.95L776.27-17.95Q778.72-17.95 780.77-19.05L780.77-19.05 780.92-18.9ZM798.76-38.3L798.76-25 805.71-25 804.21-21.8 798.76-21.8 798.76-4.2Q798.76-3.45 799.21-2.98 799.66-2.5 800.41-2.5L800.41-2.5Q801.46-2.5 803.31-4.45L803.31-4.45 804.01-3.7Q803.06-1.8 801.74-0.88 800.41 0.05 799.24 0.28 798.06 0.5 798.06 0.3L798.06 0.3Q798.11 0.3 798.21 0.28 798.31 0.25 798.51 0.25L798.51 0.25Q794.11 0.25 794.11-4.8L794.11-4.8 794.11-21.8 790.36-21.8 791.91-25 794.11-25 794.11-36.5 798.76-38.3Z" opacity="1" transform="matrix(1,0,0,1,0,0)" fill="black" class="slogan-text-1" id="SvgjsPath1343" stroke-width="7" stroke="black" stroke-linejoin="round"></path></svg></g></svg></g></svg></g></svg></g><g></g></svg></g></svg></g></svg></g></mask><g transform="matrix(1,0,0,1,39.55199999999999,74.75037221012106)"><svg viewBox="0 0 316.416 97.69925557975787" height="97.69925557975787" width="316.416"><g><svg viewBox="0 0 316.416 97.69925557975787" height="97.69925557975787" width="316.416"><g><svg viewBox="0 0 316.416 97.69925557975787" height="97.69925557975787" width="316.416"><g><svg viewBox="0 0 316.416 97.69925557975787" height="97.69925557975787" width="316.416"><g id="textblocktransform"><svg viewBox="0 0 316.416 97.69925557975787" height="97.69925557975787" width="316.416" id="textblock"><g><svg viewBox="0 0 316.416 59.36784733910157" height="59.36784733910157" width="316.416"><g transform="matrix(1,0,0,1,0,0)"><svg width="316.416" viewBox="-0.2200000000000002 -35.95 211.9 40.58" height="59.36784733910157" data-palette-color="#000000"><path d="M15.65-10.63L6.48-10.63 6.48-14.08 15.55-14.08Q18.82-14.08 20.3-15.71 21.78-17.35 21.78-20.23L21.78-20.23 21.78-22.4Q21.78-25.33 20.31-26.93 18.85-28.53 15.6-28.53L15.6-28.53 6.45-28.53 6.45-31.95 15.68-31.95Q21.03-31.95 23.46-29.44 25.9-26.93 25.9-22.53L25.9-22.53 25.9-20.13Q25.9-15.68 23.44-13.15 20.98-10.63 15.65-10.63L15.65-10.63ZM7.88 0L3.78 0 3.78-31.95 7.85-31.95 7.85-13.05 7.88-11.2 7.88 0ZM41.2 0.55L41.2 0.55Q35.62 0.55 32.8-2.18 29.97-4.9 29.97-9.98L29.97-9.98 29.97-14.33Q29.97-19.48 32.6-22.26 35.22-25.05 40.27-25.05L40.27-25.05Q43.67-25.05 45.95-23.79 48.22-22.53 49.37-20.2 50.52-17.88 50.52-14.65L50.52-14.65 50.52-13.75Q50.52-12.95 50.46-12.15 50.4-11.35 50.3-10.58L50.3-10.58 46.57-10.58Q46.62-11.78 46.64-12.85 46.65-13.93 46.65-14.83L46.65-14.83Q46.65-17.05 45.94-18.59 45.22-20.13 43.81-20.94 42.4-21.75 40.27-21.75L40.27-21.75Q37.12-21.75 35.55-19.93 33.97-18.1 33.97-14.7L33.97-14.7 33.97-12.38 34-11.88 34-9.55Q34-8.03 34.45-6.8 34.9-5.58 35.86-4.69 36.82-3.8 38.31-3.34 39.8-2.88 41.85-2.88L41.85-2.88Q44.22-2.88 46.27-3.5 48.32-4.13 50.12-5.2L50.12-5.2 49.75-1.7Q48.12-0.68 45.97-0.06 43.82 0.55 41.2 0.55ZM49.45-10.58L32.1-10.58 32.1-13.63 49.45-13.63 49.45-10.58ZM66.12 0.55L66.12 0.55Q60.55 0.55 57.72-2.18 54.9-4.9 54.9-9.98L54.9-9.98 54.9-14.33Q54.9-19.48 57.52-22.26 60.15-25.05 65.2-25.05L65.2-25.05Q68.6-25.05 70.87-23.79 73.15-22.53 74.3-20.2 75.45-17.88 75.45-14.65L75.45-14.65 75.45-13.75Q75.45-12.95 75.38-12.15 75.32-11.35 75.22-10.58L75.22-10.58 71.5-10.58Q71.55-11.78 71.56-12.85 71.57-13.93 71.57-14.83L71.57-14.83Q71.57-17.05 70.86-18.59 70.15-20.13 68.73-20.94 67.32-21.75 65.2-21.75L65.2-21.75Q62.05-21.75 60.47-19.93 58.9-18.1 58.9-14.7L58.9-14.7 58.9-12.38 58.92-11.88 58.92-9.55Q58.92-8.03 59.37-6.8 59.82-5.58 60.78-4.69 61.75-3.8 63.23-3.34 64.72-2.88 66.77-2.88L66.77-2.88Q69.15-2.88 71.2-3.5 73.25-4.13 75.05-5.2L75.05-5.2 74.67-1.7Q73.05-0.68 70.9-0.06 68.75 0.55 66.12 0.55ZM74.37-10.58L57.02-10.58 57.02-13.63 74.37-13.63 74.37-10.58ZM84.69-14.93L84.69-14.93 83.77-18.05 84.77-18.1Q85.57-21.2 87.52-22.99 89.47-24.78 92.69-24.78L92.69-24.78Q93.49-24.78 94.13-24.65 94.77-24.53 95.27-24.35L95.27-24.35 95.52-20.43Q94.89-20.63 94.13-20.75 93.37-20.88 92.44-20.88L92.44-20.88Q89.69-20.88 87.66-19.35 85.62-17.82 84.69-14.93ZM84.89 0L80.84 0 80.84-24.4 84.79-24.4 84.59-17.2 84.89-16.9 84.89 0ZM112.87-11.45L98.67-11.45 98.67-14.78 112.87-14.78 112.87-11.45ZM131.59-10.63L122.41-10.63 122.41-14.08 131.49-14.08Q134.76-14.08 136.24-15.71 137.71-17.35 137.71-20.23L137.71-20.23 137.71-22.4Q137.71-25.33 136.25-26.93 134.79-28.53 131.54-28.53L131.54-28.53 122.39-28.53 122.39-31.95 131.61-31.95Q136.96-31.95 139.4-29.44 141.84-26.93 141.84-22.53L141.84-22.53 141.84-20.13Q141.84-15.68 139.38-13.15 136.91-10.63 131.59-10.63L131.59-10.63ZM123.81 0L119.71 0 119.71-31.95 123.79-31.95 123.79-13.05 123.81-11.2 123.81 0ZM156.59 0.63L156.59 0.63Q151.34 0.63 148.62-2.21 145.91-5.05 145.91-10.38L145.91-10.38 145.91-14.1Q145.91-19.4 148.64-22.23 151.36-25.05 156.59-25.05L156.59-25.05Q161.84-25.05 164.55-22.23 167.26-19.4 167.26-14.1L167.26-14.1 167.26-10.38Q167.26-5.05 164.55-2.21 161.84 0.63 156.59 0.63ZM156.59-2.68L156.59-2.68Q159.84-2.68 161.52-4.6 163.21-6.53 163.21-10.15L163.21-10.15 163.21-14.33Q163.21-17.93 161.52-19.84 159.84-21.75 156.59-21.75L156.59-21.75Q153.36-21.75 151.66-19.84 149.96-17.93 149.96-14.33L149.96-14.33 149.96-10.15Q149.96-6.53 151.66-4.6 153.36-2.68 156.59-2.68ZM176.73-14.93L176.73-14.93 175.81-18.05 176.81-18.1Q177.61-21.2 179.56-22.99 181.51-24.78 184.73-24.78L184.73-24.78Q185.53-24.78 186.17-24.65 186.81-24.53 187.31-24.35L187.31-24.35 187.56-20.43Q186.93-20.63 186.17-20.75 185.41-20.88 184.48-20.88L184.48-20.88Q181.73-20.88 179.7-19.35 177.66-17.82 176.73-14.93ZM176.93 0L172.88 0 172.88-24.4 176.83-24.4 176.63-17.2 176.93-16.9 176.93 0ZM201.31 0.5L201.31 0.5Q198.48 0.5 196.76-0.35 195.03-1.2 194.26-2.93 193.48-4.65 193.48-7.23L193.48-7.23 193.48-22.63 197.48-22.63 197.48-7.7Q197.48-5.3 198.58-4.16 199.68-3.03 202.28-3.03L202.28-3.03Q203.76-3.03 205.12-3.35 206.48-3.68 207.68-4.28L207.68-4.28 207.31-0.8Q206.13-0.2 204.56 0.15 202.98 0.5 201.31 0.5ZM207.06-20.8L189.48-20.8 189.48-24.05 207.43-24.05 207.06-20.8ZM197.38-23.65L193.51-23.65 193.48-30.5 197.56-31.03 197.38-23.65Z" opacity="1" transform="matrix(1,0,0,1,0,0)" fill="#000000" class="wordmark-text-0" data-fill-palette-color="primary" id="text-0"></path></svg></g></svg></g><g transform="matrix(1,0,0,1,3.5,70.90414997886073)"><svg viewBox="0 0 309.416 26.795105600897138" height="26.795105600897138" width="309.416"><g transform="matrix(1,0,0,1,0,0)"><svg width="309.416" viewBox="-2.15 -50.6 811.86 70.9" height="26.795105600897138" data-palette-color="#ee2110"><path d="M26.2-35.6L26.2-34.15Q20.65-33.4 16.2-30.33 11.75-27.25 9.22-22.58 6.7-17.9 6.7-12.45L6.7-12.45Q6.7-7.9 8.45-5.25 10.2-2.6 13.05-2.6L13.05-2.6Q15.85-2.6 18.43-6.48 21-10.35 22.58-16.63 24.15-22.9 24.15-29.7L24.15-29.7 28.85-31.55 28.85-5.35Q28.85-3.95 29.45-3.1 30.05-2.25 31.1-2.25L31.1-2.25Q31.9-2.25 32.75-2.78 33.6-3.3 34.05-4.05L34.05-4.05 34.75-3.4Q34.05-1.85 32.6-0.8 31.15 0.25 29.3 0.25L29.3 0.25Q27 0.25 25.58-1.35 24.15-2.95 24.15-5.9L24.15-5.9 24.15-15.45 23.9-15.45Q20.3 0.55 11.7 0.55L11.7 0.55Q7.25 0.55 4.55-2.58 1.85-5.7 1.85-11.15L1.85-11.15Q1.85-17.4 5.15-22.9 8.45-28.4 14.05-31.85 19.65-35.3 26.2-35.6L26.2-35.6ZM50.8-46.6Q52.25-46.6 54.22-45.48 56.2-44.35 57.5-42.65L57.5-42.65 54.15-40.8Q53.35-42.45 51.95-43.6 50.55-44.75 48.6-44.75L48.6-44.75Q45.95-44.75 44.82-42.98 43.7-41.2 43.7-38.85L43.7-38.85 43.7-25 54.25-25 52.7-21.8 43.7-21.8 43.7 6.7 39.1 8.9 39.1-21.8 35.85-21.8 37.15-25 39.1-25 39.1-31.75Q39.1-35.65 40.25-39 41.4-42.35 44-44.48 46.6-46.6 50.8-46.6L50.8-46.6ZM69.2-46.6Q70.65-46.6 72.62-45.48 74.6-44.35 75.9-42.65L75.9-42.65 72.55-40.8Q71.75-42.45 70.35-43.6 68.95-44.75 67-44.75L67-44.75Q64.35-44.75 63.22-42.98 62.1-41.2 62.1-38.85L62.1-38.85 62.1-25 72.65-25 71.1-21.8 62.1-21.8 62.1 6.7 57.5 8.9 57.5-21.8 54.25-21.8 55.55-25 57.5-25 57.5-31.75Q57.5-35.65 58.65-39 59.8-42.35 62.4-44.48 65-46.6 69.2-46.6L69.2-46.6ZM84.34-25.45L85.24-24.4Q81.49-22 79.34-19.05 77.19-16.1 77.19-12.1L77.19-12.1Q77.19-9.85 78.14-7.58 79.09-5.3 80.99-3.8 82.89-2.3 85.54-2.3L85.54-2.3Q87.69-2.3 89.37-3.3 91.04-4.3 91.97-6 92.89-7.7 92.89-9.75L92.89-9.75Q92.89-12.1 91.47-14.55 90.04-17 87.74-18.7 85.44-20.4 83.04-20.6L83.04-20.6Q84.04-21.6 85.44-22.7 86.84-23.8 88.29-24.85L88.29-24.85Q91.74-23.7 93.74-20.48 95.74-17.25 95.74-13.3L95.74-13.3Q95.74-9.8 94.32-6.58 92.89-3.35 90.14-1.33 87.39 0.7 83.64 0.7L83.64 0.7Q80.64 0.7 78.12-0.78 75.59-2.25 74.14-4.8 72.69-7.35 72.69-10.45L72.69-10.45Q72.69-15.9 75.92-19.9 79.14-23.9 84.34-25.45L84.34-25.45ZM111.74-18.9Q109.49-16.55 107.87-12.78 106.24-9 106.24-5.9L106.24-5.9Q106.24-3.2 107.42-1.38 108.59 0.45 111.19 0.45L111.19 0.45Q113.29 0.45 115.22-0.65 117.14-1.75 118.49-3.5L118.49-3.5 117.94-4.25Q116.39-3.2 114.89-3.2L114.89-3.2Q112.54-3.2 111.34-4.85 110.14-6.5 110.14-8.85L110.14-8.85Q110.14-12.65 112.09-16.05 114.04-19.45 117.04-22.65L117.04-22.65 116.24-23.35Q112.74-21.15 109.84-21.15L109.84-21.15Q108.14-21.15 106.74-22.68 105.34-24.2 104.59-26.05L104.59-26.05 100.54-21.5Q100.89-20.5 102.44-19.2L102.44-19.2 99.09-12.2 100.94-11.35 104.19-18.5Q105.04-18.15 105.59-18.05 106.14-17.95 107.09-17.95L107.09-17.95Q109.54-17.95 111.59-19.05L111.59-19.05 111.74-18.9ZM143.74-46.2L143.74-4.45Q143.74-3.75 144.06-3.18 144.39-2.6 145.09-2.6L145.09-2.6Q145.79-2.6 146.49-3.23 147.19-3.85 147.54-4.6L147.54-4.6 148.49-3.8Q147.69-2.1 146.21-0.93 144.74 0.25 143.34 0.25L143.34 0.25Q141.04 0.25 139.99-1.05 138.94-2.35 138.99-5.55L138.99-5.55 138.79-5.55Q135.74 0.6 131.34 0.6L131.34 0.6Q126.99 0.6 124.66-2.43 122.34-5.45 122.34-10L122.34-10Q122.34-13.6 123.89-17.15 125.44-20.7 128.31-23 131.19-25.3 134.94-25.3L134.94-25.3Q137.29-25.3 139.04-24.1L139.04-24.1 139.04-44.3 143.74-46.2ZM134.64-22.35Q131.84-22.35 130.01-20.6 128.19-18.85 127.34-16.38 126.49-13.9 126.49-11.75L126.49-11.75Q126.49-10.05 127.09-8 127.69-5.95 129.04-4.48 130.39-3 132.49-3L132.49-3Q136.29-3 137.66-6.28 139.04-9.55 139.04-13.5L139.04-13.5 139.04-20.35Q138.19-21.25 137.06-21.8 135.94-22.35 134.64-22.35L134.64-22.35ZM164.84-25Q167.29-25 169.46-23.95 171.64-22.9 172.64-20.75L172.64-20.75 169.04-18.8Q168.24-19.95 166.84-20.88 165.44-21.8 163.84-21.8L163.84-21.8Q161.29-21.8 159.39-20.48 157.49-19.15 156.49-16.9 155.49-14.65 155.49-11.9L155.49-11.9Q155.49-7.95 156.84-5.48 158.19-3 161.09-3L161.09-3Q165.19-3 166.74-6.3 168.29-9.6 168.29-13.5L168.29-13.5 168.29-15.75 172.69-17.6 172.69-4.45Q172.69-3.8 173.04-3.2 173.39-2.6 174.09-2.6L174.09-2.6Q175.54-2.6 176.74-4.6L176.74-4.6 177.49-3.8Q176.89-2.1 175.39-0.93 173.89 0.25 172.39 0.25L172.39 0.25Q170.24 0.25 169.21-1.35 168.19-2.95 168.19-5.6L168.19-5.6 168.09-5.6Q166.84-2.95 164.71-1.18 162.59 0.6 160.24 0.6L160.24 0.6Q155.99 0.6 153.81-2.33 151.64-5.25 151.64-10.15L151.64-10.15Q151.64-14.05 153.39-17.48 155.14-20.9 158.16-22.95 161.19-25 164.84-25L164.84-25ZM202.83-13.2Q202.83-10.15 200.88-6.9 198.93-3.65 196.06-1.53 193.18 0.6 190.63 0.6L190.63 0.6Q186.53 0.6 184.21-2.18 181.88-4.95 181.88-9.25L181.88-9.25 181.88-44.3 186.43-46.2 186.43-8.15Q186.43-5.75 187.88-3.95 189.33-2.15 191.98-2.15L191.98-2.15Q194.18-2.15 195.81-3.4 197.43-4.65 198.26-6.48 199.08-8.3 199.08-9.95L199.08-9.95Q199.08-12.45 197.78-15.1 196.48-17.75 194.41-19.45 192.33-21.15 190.08-21.15L190.08-21.15 194.53-24.85Q196.68-24.15 198.61-22.18 200.53-20.2 201.68-17.73 202.83-15.25 202.83-13.2L202.83-13.2ZM214.23-46.2L214.23-4.2Q214.23-3.6 214.58-3.05 214.93-2.5 215.78-2.5L215.78-2.5Q216.48-2.5 217.26-3.13 218.03-3.75 218.43-4.45L218.43-4.45 219.28-3.7Q218.43-2.05 216.93-0.9 215.43 0.25 213.93 0.25L213.93 0.25Q209.73 0.25 209.73-4.8L209.73-4.8 209.73-44.3 214.23-46.2ZM236.58-25.45Q239.28-25.45 241.08-24 242.88-22.55 242.88-19.7L242.88-19.7Q242.88-17.4 240.4-14.58 237.93-11.75 234.6-9.4 231.28-7.05 228.93-6.1L228.93-6.1Q230.18-4.1 231.78-3.33 233.38-2.55 235.53-2.55L235.53-2.55Q237.93-2.55 240.3-3.78 242.68-5 244.23-6.95L244.23-6.95 244.83-5.9Q242.38-2.75 239.63-1.07 236.88 0.6 232.88 0.6L232.88 0.6Q229.83 0.6 227.43-0.9 225.03-2.4 223.68-4.93 222.33-7.45 222.33-10.4L222.33-10.4Q222.33-14.1 224.33-17.6 226.33-21.1 229.63-23.28 232.93-25.45 236.58-25.45L236.58-25.45ZM233.98-22.3Q231.78-22.3 230.05-20.9 228.33-19.5 227.35-17.3 226.38-15.1 226.38-12.75L226.38-12.75Q226.38-9.65 227.83-7.45L227.83-7.45Q229.93-8.4 232.38-10.33 234.83-12.25 236.53-14.5 238.23-16.75 238.23-18.6L238.23-18.6Q238.23-22.3 233.98-22.3L233.98-22.3ZM266.57-38.3L266.57-25 273.52-25 272.02-21.8 266.57-21.8 266.57-4.2Q266.57-3.45 267.02-2.98 267.47-2.5 268.22-2.5L268.22-2.5Q269.27-2.5 271.12-4.45L271.12-4.45 271.82-3.7Q270.87-1.8 269.55-0.88 268.22 0.05 267.05 0.28 265.87 0.5 265.87 0.3L265.87 0.3Q265.92 0.3 266.02 0.28 266.12 0.25 266.32 0.25L266.32 0.25Q261.92 0.25 261.92-4.8L261.92-4.8 261.92-21.8 258.17-21.8 259.72-25 261.92-25 261.92-36.5 266.57-38.3ZM288.02-18.9Q285.77-16.55 284.15-12.78 282.52-9 282.52-5.9L282.52-5.9Q282.52-3.2 283.7-1.38 284.87 0.45 287.47 0.45L287.47 0.45Q289.57 0.45 291.5-0.65 293.42-1.75 294.77-3.5L294.77-3.5 294.22-4.25Q292.67-3.2 291.17-3.2L291.17-3.2Q288.82-3.2 287.62-4.85 286.42-6.5 286.42-8.85L286.42-8.85Q286.42-12.65 288.37-16.05 290.32-19.45 293.32-22.65L293.32-22.65 292.52-23.35Q289.02-21.15 286.12-21.15L286.12-21.15Q284.42-21.15 283.02-22.68 281.62-24.2 280.87-26.05L280.87-26.05 276.82-21.5Q277.17-20.5 278.72-19.2L278.72-19.2 275.37-12.2 277.22-11.35 280.47-18.5Q281.32-18.15 281.87-18.05 282.42-17.95 283.37-17.95L283.37-17.95Q285.82-17.95 287.87-19.05L287.87-19.05 288.02-18.9ZM311.87-25Q314.32-25 316.49-23.95 318.67-22.9 319.67-20.75L319.67-20.75 316.07-18.8Q315.27-19.95 313.87-20.88 312.47-21.8 310.87-21.8L310.87-21.8Q308.32-21.8 306.42-20.48 304.52-19.15 303.52-16.9 302.52-14.65 302.52-11.9L302.52-11.9Q302.52-7.95 303.87-5.48 305.22-3 308.12-3L308.12-3Q312.22-3 313.77-6.3 315.32-9.6 315.32-13.5L315.32-13.5 315.32-15.75 319.72-17.6 319.72-4.45Q319.72-3.8 320.07-3.2 320.42-2.6 321.12-2.6L321.12-2.6Q322.57-2.6 323.77-4.6L323.77-4.6 324.52-3.8Q323.92-2.1 322.42-0.93 320.92 0.25 319.42 0.25L319.42 0.25Q317.27 0.25 316.24-1.35 315.22-2.95 315.22-5.6L315.22-5.6 315.12-5.6Q313.87-2.95 311.74-1.18 309.62 0.6 307.27 0.6L307.27 0.6Q303.02 0.6 300.84-2.33 298.67-5.25 298.67-10.15L298.67-10.15Q298.67-14.05 300.42-17.48 302.17-20.9 305.19-22.95 308.22-25 311.87-25L311.87-25ZM346.62-25.45Q348.62-25.45 349.22-23.98 349.82-22.5 349.82-19.9L349.82-19.9 349.82-18.35 349.82-4.2Q349.82-3.65 350.17-3.08 350.52-2.5 351.17-2.5L351.17-2.5Q352.02-2.5 352.62-3.05 353.22-3.6 353.82-4.45L353.82-4.45 354.57-3.7Q353.82-2.1 352.32-0.93 350.82 0.25 349.47 0.25L349.47 0.25Q347.47 0.25 346.37-1 345.27-2.25 345.27-4.8L345.27-4.8 345.27-18.05Q345.27-18.8 345.12-19.3 344.97-19.8 344.37-19.8L344.37-19.8Q342.32-19.8 340.17-15.85 338.02-11.9 336.49-7.03 334.97-2.15 334.97-0.6L334.97-0.6 330.62 0.7 330.62-20.7Q330.62-21.4 330.24-21.98 329.87-22.55 329.17-22.55L329.17-22.55Q327.97-22.55 326.57-20.4L326.57-20.4 325.82-21.2Q326.47-23 327.97-24.23 329.47-25.45 330.97-25.45L330.97-25.45Q333.07-25.45 334.09-24.45 335.12-23.45 335.12-21.7L335.12-21.7 335.12-8.55 335.32-8.55Q336.67-13 337.92-16.3 339.17-19.6 341.42-22.53 343.67-25.45 346.62-25.45L346.62-25.45ZM365.11-27.05Q366.81-27.05 367.59-26.45 368.36-25.85 368.36-24.6L368.36-24.6Q368.36-23.25 367.84-22.2 367.31-21.15 366.71-20.4 366.11-19.65 365.91-19.35L365.91-19.35Q366.51-18.35 368.16-17L368.16-17Q369.51-15.85 370.31-14.95 371.11-14.05 371.69-12.53 372.26-11 372.26-8.8L372.26-8.8Q372.26-6.2 371.09-4.05 369.91-1.9 367.84-0.65 365.76 0.6 363.16 0.6L363.16 0.6Q361.56 0.6 359.66-0.08 357.76-0.75 356.86-2L356.86-2 360.21-6.45Q361.41-4.9 362.74-3.8 364.06-2.7 365.61-2.7L365.61-2.7Q367.76-2.7 369.29-4.13 370.81-5.55 370.81-7.55L370.81-7.55Q370.81-9.15 369.49-10.73 368.16-12.3 365.76-14.45L365.76-14.45Q365.46-14.7 364.61-15.48 363.76-16.25 363.36-16.75L363.36-16.75 359.86-11.6 358.26-12.65 362.26-18.2Q361.56-20.15 361.56-22.05L361.56-22.05Q361.56-24.2 362.51-25.63 363.46-27.05 365.11-27.05L365.11-27.05ZM365.11-25.1Q364.46-25.1 364.29-24.75 364.11-24.4 364.11-23.7L364.11-23.7Q364.11-22.8 364.36-22.15 364.61-21.5 364.71-21.25L364.71-21.25Q365.26-21.6 365.74-22.53 366.21-23.45 366.21-24.1L366.21-24.1Q366.21-24.55 365.94-24.83 365.66-25.1 365.11-25.1L365.11-25.1ZM391.66-25.25Q394.31-25.25 396.56-23.73 398.81-22.2 400.11-19.58 401.41-16.95 401.41-13.85L401.41-13.85Q401.41-9.45 400.19-6.23 398.96-3 396.66-1.25 394.36 0.5 391.26 0.5L391.26 0.5Q390.51 0.5 389.79 0.28 389.06 0.05 387.96-0.5L387.96-0.5 389.26-3.35Q390.51-2.55 392.86-2.55L392.86-2.55Q394.96-2.55 396.29-5.33 397.61-8.1 397.61-12.45L397.61-12.45Q397.61-14.95 396.61-17.03 395.61-19.1 393.86-20.28 392.11-21.45 389.96-21.45L389.96-21.45Q387.36-21.45 385.96-18.65 384.56-15.85 384.56-10.7L384.56-10.7 384.56 14.45 380.21 16.3 380.21-20.55Q380.21-21.45 379.81-22 379.41-22.55 378.76-22.55L378.76-22.55Q378.26-22.55 377.66-22.05 377.06-21.55 376.16-20.45L376.16-20.45 375.41-21.2Q376.01-22.9 377.51-24.08 379.01-25.25 380.51-25.25L380.51-25.25Q382.76-25.25 383.76-23.93 384.76-22.6 384.76-19.65L384.76-19.65 384.96-19.65Q386.11-22.15 387.94-23.7 389.76-25.25 391.66-25.25L391.66-25.25ZM417.66-25.45L418.56-24.4Q414.81-22 412.66-19.05 410.51-16.1 410.51-12.1L410.51-12.1Q410.51-9.85 411.46-7.58 412.41-5.3 414.31-3.8 416.21-2.3 418.86-2.3L418.86-2.3Q421.01-2.3 422.68-3.3 424.36-4.3 425.28-6 426.21-7.7 426.21-9.75L426.21-9.75Q426.21-12.1 424.78-14.55 423.36-17 421.06-18.7 418.76-20.4 416.36-20.6L416.36-20.6Q417.36-21.6 418.76-22.7 420.16-23.8 421.61-24.85L421.61-24.85Q425.06-23.7 427.06-20.48 429.06-17.25 429.06-13.3L429.06-13.3Q429.06-9.8 427.63-6.58 426.21-3.35 423.46-1.33 420.71 0.7 416.96 0.7L416.96 0.7Q413.96 0.7 411.43-0.78 408.91-2.25 407.46-4.8 406.01-7.35 406.01-10.45L406.01-10.45Q406.01-15.9 409.23-19.9 412.46-23.9 417.66-25.45L417.66-25.45ZM445.06-18.9Q442.81-16.55 441.18-12.78 439.56-9 439.56-5.9L439.56-5.9Q439.56-3.2 440.73-1.38 441.91 0.45 444.51 0.45L444.51 0.45Q446.61 0.45 448.53-0.65 450.46-1.75 451.81-3.5L451.81-3.5 451.26-4.25Q449.71-3.2 448.21-3.2L448.21-3.2Q445.86-3.2 444.66-4.85 443.46-6.5 443.46-8.85L443.46-8.85Q443.46-12.65 445.41-16.05 447.36-19.45 450.36-22.65L450.36-22.65 449.56-23.35Q446.06-21.15 443.16-21.15L443.16-21.15Q441.46-21.15 440.06-22.68 438.66-24.2 437.91-26.05L437.91-26.05 433.86-21.5Q434.21-20.5 435.76-19.2L435.76-19.2 432.41-12.2 434.26-11.35 437.51-18.5Q438.36-18.15 438.91-18.05 439.46-17.95 440.41-17.95L440.41-17.95Q442.86-17.95 444.91-19.05L444.91-19.05 445.06-18.9ZM462.9-38.3L462.9-25 469.85-25 468.35-21.8 462.9-21.8 462.9-4.2Q462.9-3.45 463.35-2.98 463.8-2.5 464.55-2.5L464.55-2.5Q465.6-2.5 467.45-4.45L467.45-4.45 468.15-3.7Q467.2-1.8 465.88-0.88 464.55 0.05 463.38 0.28 462.2 0.5 462.2 0.3L462.2 0.3Q462.25 0.3 462.35 0.28 462.45 0.25 462.65 0.25L462.65 0.25Q458.25 0.25 458.25-4.8L458.25-4.8 458.25-21.8 454.5-21.8 456.05-25 458.25-25 458.25-36.5 462.9-38.3ZM511.95-26.85Q515.5-25.2 515.5-20.95L515.5-20.95Q515.5-19.95 515.27-18.73 515.05-17.5 514.7-16.6L514.7-16.6 508.05-0.85Q507.8 0.05 506.65 0.05L506.65 0.05Q505.35 0.05 505.05-0.9L505.05-0.9 500.95-15.15 495.6-1Q495.3-0.35 495.02-0.08 494.75 0.2 494.15 0.2L494.15 0.2Q493.55 0.2 493.25-0.05 492.95-0.3 492.75-0.75L492.75-0.75 487.15-18.3Q486.75-19.7 486.2-20.25 485.65-20.8 484.65-20.8L484.65-20.8Q483.5-20.8 482.5-19.8L482.5-19.8 481.95-20.6Q483.05-22.6 484.57-23.8 486.1-25 488-25L488-25Q488.95-25 489.55-24.35 490.15-23.7 490.5-22.88 490.85-22.05 491.5-20.05L491.5-20.05 495.75-6.8 500.1-18.25 498.5-23.75 503.15-25.5 508.45-6.7 511.4-13.85Q511.8-14.65 511.8-16.25L511.8-16.25Q511.8-18.1 510.87-19.53 509.95-20.95 508.3-21.8L508.3-21.8 511.95-26.85ZM526.2-41.7L524.5-30.05 522.85-29.45 520.8-39.85 526.2-41.7ZM526.15-24.8L526.15-4.2Q526.15-3.45 526.52-2.98 526.9-2.5 527.6-2.5L527.6-2.5Q528.15-2.5 528.82-3 529.5-3.5 530.2-4.45L530.2-4.45 531-3.7Q529.85-1.55 528.22-0.65 526.6 0.25 525.25 0.25L525.25 0.25Q523.45 0.25 522.47-0.9 521.5-2.05 521.5-4.8L521.5-4.8 521.5-23 526.15-24.8ZM541.49-38.3L541.49-25 548.44-25 546.94-21.8 541.49-21.8 541.49-4.2Q541.49-3.45 541.94-2.98 542.39-2.5 543.14-2.5L543.14-2.5Q544.19-2.5 546.04-4.45L546.04-4.45 546.74-3.7Q545.79-1.8 544.47-0.88 543.14 0.05 541.97 0.28 540.79 0.5 540.79 0.3L540.79 0.3Q540.84 0.3 540.94 0.28 541.04 0.25 541.24 0.25L541.24 0.25Q536.84 0.25 536.84-4.8L536.84-4.8 536.84-21.8 533.09-21.8 534.64-25 536.84-25 536.84-36.5 541.49-38.3ZM557.99-46.2L557.99-10.65 558.19-10.65Q558.69-13.4 559.96-16.82 561.24-20.25 563.39-22.85 565.54-25.45 568.44-25.45L568.44-25.45Q569.99-25.45 570.71-24.33 571.44-23.2 571.56-21.8 571.69-20.4 571.69-18.1L571.69-18.1 571.69-4.2Q571.69-3.6 572.06-3.05 572.44-2.5 573.24-2.5L573.24-2.5Q574.54-2.5 575.89-4.45L575.89-4.45 576.49-3.7Q575.79-2.05 574.26-0.9 572.74 0.25 571.19 0.25L571.19 0.25Q567.29 0.25 567.29-4.8L567.29-4.8 567.29-18.05Q567.29-18.7 567.01-19.25 566.74-19.8 566.09-19.8L566.09-19.8Q563.54-19.8 561.69-15.83 559.84-11.85 558.84-7.08 557.84-2.3 557.84-0.6L557.84-0.6 553.39 0.7 553.39-44.3 557.99-46.2ZM607.53-35.75Q612.28-35.75 615.31-33.18 618.33-30.6 618.33-25.45L618.33-25.45Q618.33-21.35 615.58-17.82 612.83-14.3 608.56-12.2 604.28-10.1 599.98-10.1L599.98-10.1Q599.53-10.1 599.43-10.2L599.43-10.2 599.68-11.55Q603.03-11.9 606.23-13.65 609.43-15.4 611.46-18.23 613.48-21.05 613.48-24.5L613.48-24.5Q613.48-28.25 611.21-30.5 608.93-32.75 604.48-32.75L604.48-32.75Q601.03-32.75 597.21-31.13 593.38-29.5 590.53-26.9L590.53-26.9 589.58-27.95Q593.23-31.35 598.11-33.55 602.98-35.75 607.53-35.75L607.53-35.75ZM597.38-28.5L597.38-1.1 592.78 0.65 592.78-26.7 597.38-28.5ZM631.48-25.45Q634.18-25.45 635.98-24 637.78-22.55 637.78-19.7L637.78-19.7Q637.78-17.4 635.31-14.58 632.83-11.75 629.51-9.4 626.18-7.05 623.83-6.1L623.83-6.1Q625.08-4.1 626.68-3.33 628.28-2.55 630.43-2.55L630.43-2.55Q632.83-2.55 635.21-3.78 637.58-5 639.13-6.95L639.13-6.95 639.73-5.9Q637.28-2.75 634.53-1.07 631.78 0.6 627.78 0.6L627.78 0.6Q624.73 0.6 622.33-0.9 619.93-2.4 618.58-4.93 617.23-7.45 617.23-10.4L617.23-10.4Q617.23-14.1 619.23-17.6 621.23-21.1 624.53-23.28 627.83-25.45 631.48-25.45L631.48-25.45ZM628.88-22.3Q626.68-22.3 624.96-20.9 623.23-19.5 622.26-17.3 621.28-15.1 621.28-12.75L621.28-12.75Q621.28-9.65 622.73-7.45L622.73-7.45Q624.83-8.4 627.28-10.33 629.73-12.25 631.43-14.5 633.13-16.75 633.13-18.6L633.13-18.6Q633.13-22.3 628.88-22.3L628.88-22.3ZM657.58-25.45Q660.28-25.45 662.08-24 663.88-22.55 663.88-19.7L663.88-19.7Q663.88-17.4 661.4-14.58 658.93-11.75 655.6-9.4 652.28-7.05 649.93-6.1L649.93-6.1Q651.18-4.1 652.78-3.33 654.38-2.55 656.53-2.55L656.53-2.55Q658.93-2.55 661.3-3.78 663.68-5 665.23-6.95L665.23-6.95 665.83-5.9Q663.38-2.75 660.63-1.07 657.88 0.6 653.88 0.6L653.88 0.6Q650.83 0.6 648.43-0.9 646.03-2.4 644.68-4.93 643.33-7.45 643.33-10.4L643.33-10.4Q643.33-14.1 645.33-17.6 647.33-21.1 650.63-23.28 653.93-25.45 657.58-25.45L657.58-25.45ZM654.98-22.3Q652.78-22.3 651.05-20.9 649.33-19.5 648.35-17.3 647.38-15.1 647.38-12.75L647.38-12.75Q647.38-9.65 648.83-7.45L648.83-7.45Q650.93-8.4 653.38-10.33 655.83-12.25 657.53-14.5 659.23-16.75 659.23-18.6L659.23-18.6Q659.23-22.3 654.98-22.3L654.98-22.3ZM680.98-18.9Q678.73-16.55 677.1-12.78 675.48-9 675.48-5.9L675.48-5.9Q675.48-3.2 676.65-1.38 677.83 0.45 680.43 0.45L680.43 0.45Q682.53 0.45 684.45-0.65 686.38-1.75 687.73-3.5L687.73-3.5 687.18-4.25Q685.63-3.2 684.13-3.2L684.13-3.2Q681.78-3.2 680.58-4.85 679.38-6.5 679.38-8.85L679.38-8.85Q679.38-12.65 681.33-16.05 683.28-19.45 686.28-22.65L686.28-22.65 685.48-23.35Q681.98-21.15 679.08-21.15L679.08-21.15Q677.38-21.15 675.98-22.68 674.58-24.2 673.83-26.05L673.83-26.05 669.78-21.5Q670.13-20.5 671.68-19.2L671.68-19.2 668.33-12.2 670.18-11.35 673.43-18.5Q674.28-18.15 674.83-18.05 675.38-17.95 676.33-17.95L676.33-17.95Q678.78-17.95 680.83-19.05L680.83-19.05 680.98-18.9ZM693.72-20.85L692.12-16.6 709.07-16.6 710.57-20.85 693.72-20.85ZM732.17-35.75Q736.92-35.75 739.95-33.18 742.97-30.6 742.97-25.45L742.97-25.45Q742.97-21.35 740.22-17.82 737.47-14.3 733.2-12.2 728.92-10.1 724.62-10.1L724.62-10.1Q724.17-10.1 724.07-10.2L724.07-10.2 724.32-11.55Q727.67-11.9 730.87-13.65 734.07-15.4 736.1-18.23 738.12-21.05 738.12-24.5L738.12-24.5Q738.12-28.25 735.85-30.5 733.57-32.75 729.12-32.75L729.12-32.75Q725.67-32.75 721.85-31.13 718.02-29.5 715.17-26.9L715.17-26.9 714.22-27.95Q717.87-31.35 722.75-33.55 727.62-35.75 732.17-35.75L732.17-35.75ZM722.02-28.5L722.02-1.1 717.42 0.65 717.42-26.7 722.02-28.5ZM753.52-25.45L754.42-24.4Q750.67-22 748.52-19.05 746.37-16.1 746.37-12.1L746.37-12.1Q746.37-9.85 747.32-7.58 748.27-5.3 750.17-3.8 752.07-2.3 754.72-2.3L754.72-2.3Q756.87-2.3 758.54-3.3 760.22-4.3 761.14-6 762.07-7.7 762.07-9.75L762.07-9.75Q762.07-12.1 760.64-14.55 759.22-17 756.92-18.7 754.62-20.4 752.22-20.6L752.22-20.6Q753.22-21.6 754.62-22.7 756.02-23.8 757.47-24.85L757.47-24.85Q760.92-23.7 762.92-20.48 764.92-17.25 764.92-13.3L764.92-13.3Q764.92-9.8 763.49-6.58 762.07-3.35 759.32-1.33 756.57 0.7 752.82 0.7L752.82 0.7Q749.82 0.7 747.29-0.78 744.77-2.25 743.32-4.8 741.87-7.35 741.87-10.45L741.87-10.45Q741.87-15.9 745.09-19.9 748.32-23.9 753.52-25.45L753.52-25.45ZM780.92-18.9Q778.67-16.55 777.04-12.78 775.42-9 775.42-5.9L775.42-5.9Q775.42-3.2 776.59-1.38 777.77 0.45 780.37 0.45L780.37 0.45Q782.47 0.45 784.39-0.65 786.32-1.75 787.67-3.5L787.67-3.5 787.12-4.25Q785.57-3.2 784.07-3.2L784.07-3.2Q781.72-3.2 780.52-4.85 779.32-6.5 779.32-8.85L779.32-8.85Q779.32-12.65 781.27-16.05 783.22-19.45 786.22-22.65L786.22-22.65 785.42-23.35Q781.92-21.15 779.02-21.15L779.02-21.15Q777.32-21.15 775.92-22.68 774.52-24.2 773.77-26.05L773.77-26.05 769.72-21.5Q770.07-20.5 771.62-19.2L771.62-19.2 768.27-12.2 770.12-11.35 773.37-18.5Q774.22-18.15 774.77-18.05 775.32-17.95 776.27-17.95L776.27-17.95Q778.72-17.95 780.77-19.05L780.77-19.05 780.92-18.9ZM798.76-38.3L798.76-25 805.71-25 804.21-21.8 798.76-21.8 798.76-4.2Q798.76-3.45 799.21-2.98 799.66-2.5 800.41-2.5L800.41-2.5Q801.46-2.5 803.31-4.45L803.31-4.45 804.01-3.7Q803.06-1.8 801.74-0.88 800.41 0.05 799.24 0.28 798.06 0.5 798.06 0.3L798.06 0.3Q798.11 0.3 798.21 0.28 798.31 0.25 798.51 0.25L798.51 0.25Q794.11 0.25 794.11-4.8L794.11-4.8 794.11-21.8 790.36-21.8 791.91-25 794.11-25 794.11-36.5 798.76-38.3Z" opacity="1" transform="matrix(1,0,0,1,0,0)" fill="#ee2110" class="slogan-text-1" data-fill-palette-color="secondary" id="text-1"></path></svg></g></svg></g></svg></g></svg></g><g></g></svg></g></svg></g></svg></g><g mask="url(#0270111f-2528-421e-a54b-6932e025e7b7)"><g transform="matrix(3.206024849564447, 0, 0, 3.206024849564447, 37.45892616531688, 1)"><svg xmlns="http://www.w3.org/2000/svg" xmlns:xlink="http://www.w3.org/1999/xlink" version="1.1" x="0" y="0" viewBox="0.00010520413731809897 11.8069905867977 99.99989479586269 76.48100420472771" enable-background="new 0 0 100 100" xml:space="preserve" height="76.48100420472771" width="99.99989479586269" class="icon-none" data-fill-palette-color="accent" id="none"><g fill="#000000" data-fill-palette-color="accent"><g fill="#000000" data-fill-palette-color="accent"><path fill="#000000" d="M12.07 69.712L3.137 78.091C0.318 80.736-0.809 84.113 0.619 85.637 2.046 87.158 5.49 86.25 8.308 83.604L14.287 77.996z" data-fill-palette-color="accent"></path></g><circle fill="#000000" cx="12.247" cy="18.383" r="6.6" data-fill-palette-color="accent"></circle><rect x="46.491" y="52.005" transform="matrix(-0.8997 0.4364 -0.4364 -0.8997 138.1201 95.018)" fill="#000000" width="23.308" height="22.741" data-fill-palette-color="accent"></rect><path fill="#000000" d="M69.668 72.962L51.645 81.707 34.374 46.108A3.8 3.8 0 0 0 35.609 43.302 3.82 3.82 0 0 0 31.789 39.483H27.383L17.526 30.227A6.58 6.58 0 0 0 13.166 27.653C13.136 27.648 13.104 27.645 13.074 27.641A5 5 0 0 0 12.824 27.615C12.766 27.61 12.71 27.605 12.651 27.602A7 7 0 0 0 12.303 27.59L12.267 27.589H12.256A6.583 6.583 0 0 0 5.672 34.173V56.556H10.445L16.023 77.994 16.054 77.985 18.032 85.362A3.824 3.824 0 0 0 22.719 88.061 3.824 3.824 0 0 0 25.427 83.38L23.451 76.003 18.792 56.556H18.842V41.426L24.154 47.122H31.792C31.833 47.122 31.871 47.118 31.912 47.116L49.256 82.868 50.417 85.26 70.832 75.354z" data-fill-palette-color="accent"></path><path d="M100 56.643V34.174H99.976A6.568 6.568 0 0 0 86.841 34.174H86.833V83.584A4.608 4.608 0 1 0 96.047 83.584L96.046 83.574V56.643z" fill="#000000" data-fill-palette-color="accent"></path><path fill="#000000" d="M97.295 13.08A6.54 6.54 0 0 0 93.407 11.807 6.55 6.55 0 0 0 89.52 13.08 6.576 6.576 0 1 0 97.295 13.08" data-fill-palette-color="accent"></path><circle fill="#000000" cx="39.428" cy="81.581" r="6.6" data-fill-palette-color="accent"></circle></g></svg></g></g></svg></g><defs></defs></svg><rect width="395.52" height="247.2" fill="none" stroke="none" visibility="hidden"></rect></g></svg></g></svg>